<svg width="47" height="47" viewBox="0 0 47 47" fill="none" xmlns="http://www.w3.org/2000/svg">
<path fill-rule="evenodd" clip-rule="evenodd" d="M8.8125 30.8438V29.375H5.875V30.8438C5.875 36.5229 10.4771 41.125 16.1562 41.125H20.5625V38.1875H16.1562C14.2086 38.1875 12.3407 37.4138 10.9634 36.0366C9.58621 34.6593 8.8125 32.7914 8.8125 30.8438ZM35.25 16.1562V17.625H38.1875V16.1562C38.1875 10.4771 33.5854 5.875 27.9062 5.875H23.5V8.8125H27.9062C29.8539 8.8125 31.7218 9.58621 33.0991 10.9634C34.4763 12.3407 35.25 14.2086 35.25 16.1562ZM16.1562 16.1562H7.34375C6.17514 16.1562 5.05439 16.6205 4.22806 17.4468C3.40173 18.2731 2.9375 19.3939 2.9375 20.5625V23.5H5.875V20.5625C5.875 20.173 6.02974 19.7994 6.30519 19.5239C6.58063 19.2485 6.95421 19.0938 7.34375 19.0938H16.1562C16.5458 19.0938 16.9194 19.2485 17.1948 19.5239C17.4703 19.7994 17.625 20.173 17.625 20.5625V23.5H20.5625V20.5625C20.5625 19.3939 20.0983 18.2731 19.2719 17.4468C18.4456 16.6205 17.3249 16.1562 16.1562 16.1562ZM11.75 14.6875C13.3081 14.6875 14.8025 14.0685 15.9043 12.9668C17.006 11.865 17.625 10.3706 17.625 8.8125C17.625 7.25435 17.006 5.76002 15.9043 4.65825C14.8025 3.55647 13.3081 2.9375 11.75 2.9375C10.1919 2.9375 8.69752 3.55647 7.59575 4.65825C6.49397 5.76002 5.875 7.25435 5.875 8.8125C5.875 10.3706 6.49397 11.865 7.59575 12.9668C8.69752 14.0685 10.1919 14.6875 11.75 14.6875ZM11.75 5.875C12.5291 5.875 13.2762 6.18449 13.8271 6.73537C14.378 7.28626 14.6875 8.03343 14.6875 8.8125C14.6875 9.59157 14.378 10.3387 13.8271 10.8896C13.2762 11.4405 12.5291 11.75 11.75 11.75C10.9709 11.75 10.2238 11.4405 9.67287 10.8896C9.12199 10.3387 8.8125 9.59157 8.8125 8.8125C8.8125 8.03343 9.12199 7.28626 9.67287 6.73537C10.2238 6.18449 10.9709 5.875 11.75 5.875ZM39.6562 36.7188H30.8438C29.6751 36.7188 28.5544 37.183 27.7281 38.0093C26.9017 38.8356 26.4375 39.9564 26.4375 41.125V44.0625H29.375V41.125C29.375 40.7355 29.5297 40.3619 29.8052 40.0864C30.0806 39.811 30.4542 39.6562 30.8438 39.6562H39.6562C40.0458 39.6562 40.4194 39.811 40.6948 40.0864C40.9703 40.3619 41.125 40.7355 41.125 41.125V44.0625H44.0625V41.125C44.0625 39.9564 43.5983 38.8356 42.7719 38.0093C41.9456 37.183 40.8249 36.7188 39.6562 36.7188ZM29.375 29.375C29.375 30.9331 29.994 32.4275 31.0957 33.5293C32.1975 34.631 33.6919 35.25 35.25 35.25C36.8081 35.25 38.3025 34.631 39.4043 33.5293C40.506 32.4275 41.125 30.9331 41.125 29.375C41.125 27.8169 40.506 26.3225 39.4043 25.2207C38.3025 24.119 36.8081 23.5 35.25 23.5C33.6919 23.5 32.1975 24.119 31.0957 25.2207C29.994 26.3225 29.375 27.8169 29.375 29.375ZM38.1875 29.375C38.1875 30.1541 37.878 30.9012 37.3271 31.4521C36.7762 32.003 36.0291 32.3125 35.25 32.3125C34.4709 32.3125 33.7238 32.003 33.1729 31.4521C32.622 30.9012 32.3125 30.1541 32.3125 29.375C32.3125 28.5959 32.622 27.8488 33.1729 27.2979C33.7238 26.747 34.4709 26.4375 35.25 26.4375C36.0291 26.4375 36.7762 26.747 37.3271 27.2979C37.878 27.8488 38.1875 28.5959 38.1875 29.375Z" fill="#979CA8"/>
<mask id="mask0_155_434" style="mask-type:alpha" maskUnits="userSpaceOnUse" x="2" y="2" width="43" height="43">
<path fill-rule="evenodd" clip-rule="evenodd" d="M8.8125 30.8438V29.375H5.875V30.8438C5.875 36.5229 10.4771 41.125 16.1562 41.125H20.5625V38.1875H16.1562C14.2086 38.1875 12.3407 37.4138 10.9634 36.0366C9.58621 34.6593 8.8125 32.7914 8.8125 30.8438ZM35.25 16.1562V17.625H38.1875V16.1562C38.1875 10.4771 33.5854 5.875 27.9062 5.875H23.5V8.8125H27.9062C29.8539 8.8125 31.7218 9.58621 33.0991 10.9634C34.4763 12.3407 35.25 14.2086 35.25 16.1562ZM16.1562 16.1562H7.34375C6.17514 16.1562 5.05439 16.6205 4.22806 17.4468C3.40173 18.2731 2.9375 19.3939 2.9375 20.5625V23.5H5.875V20.5625C5.875 20.173 6.02974 19.7994 6.30519 19.5239C6.58063 19.2485 6.95421 19.0938 7.34375 19.0938H16.1562C16.5458 19.0938 16.9194 19.2485 17.1948 19.5239C17.4703 19.7994 17.625 20.173 17.625 20.5625V23.5H20.5625V20.5625C20.5625 19.3939 20.0983 18.2731 19.2719 17.4468C18.4456 16.6205 17.3249 16.1562 16.1562 16.1562ZM11.75 14.6875C13.3081 14.6875 14.8025 14.0685 15.9043 12.9668C17.006 11.865 17.625 10.3706 17.625 8.8125C17.625 7.25435 17.006 5.76002 15.9043 4.65825C14.8025 3.55647 13.3081 2.9375 11.75 2.9375C10.1919 2.9375 8.69752 3.55647 7.59575 4.65825C6.49397 5.76002 5.875 7.25435 5.875 8.8125C5.875 10.3706 6.49397 11.865 7.59575 12.9668C8.69752 14.0685 10.1919 14.6875 11.75 14.6875ZM11.75 5.875C12.5291 5.875 13.2762 6.18449 13.8271 6.73537C14.378 7.28626 14.6875 8.03343 14.6875 8.8125C14.6875 9.59157 14.378 10.3387 13.8271 10.8896C13.2762 11.4405 12.5291 11.75 11.75 11.75C10.9709 11.75 10.2238 11.4405 9.67287 10.8896C9.12199 10.3387 8.8125 9.59157 8.8125 8.8125C8.8125 8.03343 9.12199 7.28626 9.67287 6.73537C10.2238 6.18449 10.9709 5.875 11.75 5.875ZM39.6562 36.7188H30.8438C29.6751 36.7188 28.5544 37.183 27.7281 38.0093C26.9017 38.8356 26.4375 39.9564 26.4375 41.125V44.0625H29.375V41.125C29.375 40.7355 29.5297 40.3619 29.8052 40.0864C30.0806 39.811 30.4542 39.6562 30.8438 39.6562H39.6562C40.0458 39.6562 40.4194 39.811 40.6948 40.0864C40.9703 40.3619 41.125 40.7355 41.125 41.125V44.0625H44.0625V41.125C44.0625 39.9564 43.5983 38.8356 42.7719 38.0093C41.9456 37.183 40.8249 36.7188 39.6562 36.7188ZM29.375 29.375C29.375 30.9331 29.994 32.4275 31.0957 33.5293C32.1975 34.631 33.6919 35.25 35.25 35.25C36.8081 35.25 38.3025 34.631 39.4043 33.5293C40.506 32.4275 41.125 30.9331 41.125 29.375C41.125 27.8169 40.506 26.3225 39.4043 25.2207C38.3025 24.119 36.8081 23.5 35.25 23.5C33.6919 23.5 32.1975 24.119 31.0957 25.2207C29.994 26.3225 29.375 27.8169 29.375 29.375ZM38.1875 29.375C38.1875 30.1541 37.878 30.9012 37.3271 31.4521C36.7762 32.003 36.0291 32.3125 35.25 32.3125C34.4709 32.3125 33.7238 32.003 33.1729 31.4521C32.622 30.9012 32.3125 30.1541 32.3125 29.375C32.3125 28.5959 32.622 27.8488 33.1729 27.2979C33.7238 26.747 34.4709 26.4375 35.25 26.4375C36.0291 26.4375 36.7762 26.747 37.3271 27.2979C37.878 27.8488 38.1875 28.5959 38.1875 29.375Z" fill="white"/>
</mask>
<g mask="url(#mask0_155_434)">
</g>
</svg>
