<svg width="40" height="40" viewBox="0 0 40 40" fill="none" xmlns="http://www.w3.org/2000/svg">
<rect y="0.706032" width="27.2414" height="27.2414" transform="matrix(0.70818 0.706032 -0.70818 0.706032 20.5 0.207551)" stroke="black"/>
<g clip-path="url(#clip0)">
<path d="M24.1304 21.3264L24.1236 21.3858C22.4744 20.5181 22.3019 20.4025 22.0889 20.7398C21.9411 20.9733 21.5106 21.5029 21.3809 21.6597C21.2496 21.814 21.1191 21.8259 20.8964 21.719C20.6714 21.6003 19.9491 21.3509 19.0941 20.5434C18.4281 19.914 17.9811 19.1422 17.8491 18.9047C17.6294 18.5041 18.0891 18.4471 18.5076 17.6111C18.5826 17.4448 18.5444 17.3142 18.4889 17.1963C18.4326 17.0775 17.9849 15.9138 17.7974 15.4498C17.6174 14.9875 17.4321 15.0461 17.2934 15.0461C16.8614 15.0065 16.5456 15.0128 16.2674 15.3184C15.0569 16.7228 15.3621 18.1716 16.3979 19.7122C18.4334 22.5242 19.5179 23.0419 21.5009 23.7608C22.0364 23.9405 22.5246 23.9151 22.9109 23.8565C23.3414 23.7845 24.2361 23.2858 24.4229 22.7276C24.6141 22.1695 24.6141 21.7064 24.5579 21.5995C24.5024 21.4926 24.3554 21.4333 24.1304 21.3264V21.3264Z" fill="#4AC959"/>
<path d="M26.39 12.7291C20.6233 6.84466 11.0795 11.1125 11.0758 19.414C11.0758 21.0733 11.4875 22.6915 12.272 24.1204L11 28.9987L15.7513 27.6908C21.68 31.0712 28.997 26.5825 29 19.4187C29 16.9044 28.07 14.5381 26.3787 12.76L26.39 12.7291ZM27.5015 19.3926C27.497 25.4354 21.2127 29.2092 16.2425 26.1249L15.9725 25.9555L13.16 26.7274L13.9137 23.8417L13.7345 23.5449C10.6415 18.3476 14.195 11.5551 20.054 11.5551C22.0445 11.5551 23.9128 12.3745 25.3198 13.8588C26.726 15.3305 27.5015 17.3026 27.5015 19.3926V19.3926Z" fill="#4AC959"/>
</g>
<defs>
<clipPath id="clip0">
<rect x="11" y="10" width="18" height="19" fill="white"/>
</clipPath>
</defs>
</svg>
