<svg width="29" height="29" viewBox="0 0 29 29" fill="none" xmlns="http://www.w3.org/2000/svg">
<rect y="0.706032" width="18.9687" height="18.9687" transform="matrix(0.70818 0.706032 -0.70818 0.706032 15.207 0.207551)" stroke="black"/>
<path d="M16.9375 8H12.0625C9.81919 8 8 9.81919 8 12.0625V16.9375C8 19.1808 9.81919 21 12.0625 21H16.9375C19.1808 21 21 19.1808 21 16.9375V12.0625C21 9.81919 19.1808 8 16.9375 8ZM19.7812 16.9375C19.7812 18.5056 18.5056 19.7812 16.9375 19.7812H12.0625C10.4944 19.7812 9.21875 18.5056 9.21875 16.9375V12.0625C9.21875 10.4944 10.4944 9.21875 12.0625 9.21875H16.9375C18.5056 9.21875 19.7812 10.4944 19.7812 12.0625V16.9375Z" fill="url(#paint0_linear)"/>
<path d="M14.5 11.25C12.7052 11.25 11.25 12.7052 11.25 14.5C11.25 16.2948 12.7052 17.75 14.5 17.75C16.2948 17.75 17.75 16.2948 17.75 14.5C17.75 12.7052 16.2948 11.25 14.5 11.25ZM14.5 16.5312C13.3804 16.5312 12.4688 15.6196 12.4688 14.5C12.4688 13.3796 13.3804 12.4688 14.5 12.4688C15.6196 12.4688 16.5312 13.3796 16.5312 14.5C16.5312 15.6196 15.6196 16.5312 14.5 16.5312Z" fill="url(#paint1_linear)"/>
<path d="M17.9939 11.4394C18.233 11.4394 18.4269 11.2455 18.4269 11.0063C18.4269 10.7671 18.233 10.5732 17.9939 10.5732C17.7547 10.5732 17.5608 10.7671 17.5608 11.0063C17.5608 11.2455 17.7547 11.4394 17.9939 11.4394Z" fill="url(#paint2_linear)"/>
<defs>
<linearGradient id="paint0_linear" x1="9.19003" y1="19.8101" x2="19.81" y2="9.18995" gradientUnits="userSpaceOnUse">
<stop stop-color="#FFC107"/>
<stop offset="0.507" stop-color="#F44336"/>
<stop offset="0.99" stop-color="#9C27B0"/>
</linearGradient>
<linearGradient id="paint1_linear" x1="12.202" y1="16.798" x2="16.798" y2="12.202" gradientUnits="userSpaceOnUse">
<stop stop-color="#FFC107"/>
<stop offset="0.507" stop-color="#F44336"/>
<stop offset="0.99" stop-color="#9C27B0"/>
</linearGradient>
<linearGradient id="paint2_linear" x1="17.6877" y1="11.3126" x2="18.3" y2="10.7001" gradientUnits="userSpaceOnUse">
<stop stop-color="#FFC107"/>
<stop offset="0.507" stop-color="#F44336"/>
<stop offset="0.99" stop-color="#9C27B0"/>
</linearGradient>
</defs>
</svg>
