<svg width="29" height="29" viewBox="0 0 29 29" fill="none" xmlns="http://www.w3.org/2000/svg">
<rect y="0.706032" width="18.9687" height="18.9687" transform="matrix(0.70818 0.706032 -0.70818 0.706032 14.9242 0.207551)" stroke="black"/>
<path d="M17.55 9.58026C14.3463 6.17347 9.04417 8.64434 9.04208 13.4504C9.04208 14.4111 9.27083 15.3479 9.70667 16.1752L9 18.9995L11.6396 18.2423C14.9333 20.1994 18.9983 17.6006 19 13.4532C19 11.9975 18.4833 10.6275 17.5437 9.59813L17.55 9.58026ZM18.1675 13.438C18.165 16.9365 14.6737 19.1214 11.9125 17.3357L11.7625 17.2376L10.2 17.6845L10.6187 16.0139L10.5192 15.842C8.80083 12.833 10.775 8.90055 14.03 8.90055C15.1358 8.90055 16.1737 9.37492 16.9554 10.2343C17.7367 11.0863 18.1675 12.228 18.1675 13.438V13.438Z" fill="#4AC959"/>
<path d="M16.2946 14.5575L16.2909 14.5919C15.3746 14.0895 15.2788 14.0226 15.1605 14.2179C15.0784 14.3531 14.8392 14.6597 14.7671 14.7505C14.6942 14.8398 14.6217 14.8467 14.498 14.7848C14.373 14.7161 13.9717 14.5717 13.4967 14.1042C13.1267 13.7398 12.8784 13.293 12.8051 13.1555C12.683 12.9235 12.9384 12.8905 13.1709 12.4065C13.2126 12.3103 13.1913 12.2347 13.1605 12.1664C13.1292 12.0976 12.8805 11.4239 12.7763 11.1553C12.6763 10.8876 12.5734 10.9215 12.4963 10.9215C12.2563 10.8986 12.0809 10.9023 11.9263 11.0792C11.2538 11.8923 11.4234 12.731 11.9988 13.623C13.1296 15.251 13.7321 15.5507 14.8338 15.9669C15.1313 16.0709 15.4026 16.0562 15.6171 16.0223C15.8563 15.9806 16.3534 15.6919 16.4571 15.3687C16.5634 15.0456 16.5634 14.7775 16.5321 14.7156C16.5013 14.6537 16.4196 14.6194 16.2946 14.5575V14.5575Z" fill="#4AC959"/>
</svg>
