<svg width="29" height="29" viewBox="0 0 29 29" fill="none" xmlns="http://www.w3.org/2000/svg">
<rect y="0.706032" width="18.9687" height="18.9687" transform="matrix(0.70818 0.706032 -0.70818 0.706032 14.6414 0.207551)" stroke="black"/>
<g clip-path="url(#clip0)">
<path d="M19.7034 16.1598C19.6749 16.1121 19.4986 15.7289 18.65 14.9414C17.7617 14.1167 17.881 14.2506 18.951 12.8246C19.6027 11.9562 19.8632 11.4259 19.7817 11.1991C19.7041 10.983 19.2248 11.04 19.2248 11.04L17.6311 11.0493C17.6311 11.0493 17.5131 11.0334 17.4249 11.0858C17.3394 11.1375 17.2844 11.2568 17.2844 11.2568C17.2844 11.2568 17.0318 11.929 16.6951 12.5005C15.9851 13.7063 15.7007 13.77 15.5847 13.6951C15.3148 13.5207 15.3825 12.9937 15.3825 12.6198C15.3825 11.451 15.5595 10.9638 15.0371 10.8378C14.8634 10.7961 14.7361 10.7682 14.2926 10.7636C13.7238 10.7576 13.2419 10.7656 12.9694 10.8988C12.7878 10.9877 12.6479 11.1859 12.7334 11.1971C12.8388 11.2111 13.0775 11.2614 13.2041 11.4338C13.3678 11.6559 13.3619 12.1557 13.3619 12.1557C13.3619 12.1557 13.456 13.5313 13.1424 13.7023C12.927 13.8197 12.632 13.5804 11.9989 12.4859C11.6747 11.9257 11.4294 11.3059 11.4294 11.3059C11.4294 11.3059 11.3824 11.1905 11.2982 11.1289C11.1961 11.054 11.0529 11.0301 11.0529 11.0301L9.53743 11.0394C9.53743 11.0394 9.31004 11.046 9.22651 11.1448C9.15227 11.2329 9.22055 11.4146 9.22055 11.4146C9.22055 11.4146 10.4072 14.1903 11.7503 15.5897C12.9827 16.8725 14.3814 16.7883 14.3814 16.7883H15.0152C15.0152 16.7883 15.2068 16.7671 15.3042 16.6617C15.3944 16.5649 15.3911 16.3832 15.3911 16.3832C15.3911 16.3832 15.3785 15.5327 15.7736 15.4074C16.1627 15.2841 16.6626 16.2294 17.1923 16.5934C17.5927 16.8685 17.8969 16.8082 17.8969 16.8082L19.3136 16.7883C19.3136 16.7883 20.0548 16.7425 19.7034 16.1598Z" fill="#597da3"/>
</g>
<defs>
<clipPath id="clip0">
<rect x="9.19189" y="8.48486" width="10.6061" height="10.6061" fill="white"/>
</clipPath>
</defs>
</svg>
