<svg width="735" height="146" viewBox="0 0 735 146" fill="none" xmlns="http://www.w3.org/2000/svg">
<path d="M31.2055 30.8V55.2H68.2055C83.8055 55.2 95.8721 59.1333 104.405 67C113.072 74.7333 117.405 85.2667 117.405 98.6C117.405 112.733 112.805 123.667 103.605 131.4C94.4055 139.133 81.6055 143 65.2055 143H0.40547V2.99999H107.805V30.8H31.2055ZM65.0055 80.8H31.2055V115.2H65.2055C79.4721 115.2 86.6055 109.267 86.6055 97.4C86.6055 86.3333 79.4055 80.8 65.0055 80.8ZM263.988 124.4C249.855 138.4 232.122 145.4 210.788 145.4C189.455 145.4 171.722 138.4 157.588 124.4C143.588 110.4 136.588 93.2667 136.588 73C136.588 52.8667 143.655 35.8 157.788 21.8C172.055 7.66666 189.855 0.599998 211.188 0.599998C232.522 0.599998 250.188 7.59999 264.188 21.6C278.322 35.6 285.388 52.7333 285.388 73C285.388 93.1333 278.255 110.267 263.988 124.4ZM180.788 104.2C188.788 112.733 198.922 117 211.188 117C223.455 117 233.522 112.8 241.388 104.4C249.255 95.8667 253.188 85.4 253.188 73C253.188 60.7333 249.188 50.3333 241.188 41.8C233.188 33.2667 223.055 29 210.788 29C198.522 29 188.455 33.2667 180.588 41.8C172.722 50.2 168.788 60.6 168.788 73C168.788 85.2667 172.788 95.6667 180.788 104.2ZM312.71 143V2.99999H343.51V58.4H400.31V2.99999H431.11V143H400.31V86.8H343.51V143H312.71ZM523.863 77L557.663 2.99999H591.063L537.263 111.2C531.263 123.2 524.597 131.867 517.263 137.2C510.063 142.533 501.463 145.2 491.463 145.2C480.93 145.2 470.863 142.467 461.263 137L473.263 114.4C478.33 117.467 483.863 119 489.863 119C496.797 119 502.663 115.267 507.463 107.8L451.463 2.99999H485.863L523.863 77ZM677.138 145.4C656.605 145.4 639.472 138.467 625.738 124.6C612.138 110.6 605.338 93.4 605.338 73C605.338 52.7333 612.205 35.6 625.938 21.6C639.672 7.59999 657.138 0.599998 678.338 0.599998C690.472 0.599998 700.672 2.6 708.938 6.59999C717.205 10.4667 725.072 16.0667 732.538 23.4L714.138 44.6C708.138 39.1333 702.472 35.2 697.138 32.8C691.938 30.2667 685.605 29 678.138 29C666.405 29 656.672 33.2667 648.938 41.8C641.338 50.2 637.538 60.6 637.538 73C637.538 85.2667 641.338 95.6667 648.938 104.2C656.672 112.733 666.405 117 678.138 117C685.605 117 692.072 115.667 697.538 113C703.005 110.333 708.805 106.2 714.938 100.6L734.538 121.6C726.938 129.733 718.672 135.733 709.738 139.6C700.938 143.467 690.072 145.4 677.138 145.4Z" fill="url(#paint0_linear_2_42)"/>
<defs>
<linearGradient id="paint0_linear_2_42" x1="369" y1="-25" x2="363" y2="143" gradientUnits="userSpaceOnUse">
<stop stop-color="#4B5951"/>
<stop offset="0.989036" stop-color="#3D5246" stop-opacity="0.1"/>
</linearGradient>
</defs>
</svg>
