<svg width="158" height="71" viewBox="0 0 158 71" fill="none" xmlns="http://www.w3.org/2000/svg">
<path d="M12.2142 21H0L6.46632 25.1258L6.37651 51.9915L6.82556 53.5267L7.72366 55.2537L8.89119 56.597L24.2487 66V61.7783V61.0107L24.1589 60.435L23.7997 59.7633L21.8238 57.0768L12.2142 51.2239V21Z" fill="url(#paint0_linear_784_5)"/>
<path d="M43.1088 56.4051L27.4819 66V24.9339L27.5717 23.7825L27.8411 22.823L28.2003 22.1514L29.0086 21.3838L29.9067 21H52L45.6235 25.4136V32.7058L39.696 36.2559V27.3326H33.6788V54.9659L39.6062 51.1279V43.8358L45.5337 40.2857V46.7143V52.3753L45.1744 53.5267L44.8152 54.3902L44.0069 55.4456L43.1088 56.4051Z" fill="url(#paint1_linear_784_5)"/>
<path d="M24.4283 21H15.1779L18.5009 23.2068V47.29L24.4283 51.2239V21Z" fill="url(#paint2_linear_784_5)"/>
<path d="M9 17V14.8989H16.4049L12.2331 4.58427C18.3395 6.31142 22.2269 7.15677 18.2822 11.5562C21.4285 14.0116 22.8559 13.745 24.7485 10.1236C20.1486 8.72814 22.2152 5.61054 26 0C29.8487 5.42461 31.8764 8.41269 27.3558 10.4101C29.0684 13.5738 30.3614 14.1808 33.7178 11.5562C32.9188 11.0964 32.0491 10.3146 31.8405 8.59551C31.6319 6.8764 36.3382 5.21795 39.7669 4.58427L35.5951 14.8989H43V17H9Z" fill="white"/>
<path d="M25 52L18.3333 47.4792V23.5833L15 21H25V52Z" fill="white"/>
<path d="M76.456 33.458L75.743 37H63.967C64.3043 36.7393 64.5343 36.448 64.657 36.126C64.795 35.804 64.864 35.3823 64.864 34.861V22.901C64.864 22.3643 64.795 21.935 64.657 21.613C64.5343 21.2757 64.3043 20.9843 63.967 20.739H69.073C68.4597 21.199 68.153 21.9197 68.153 22.901V23.476V34.884C68.153 35.5433 68.4597 35.873 69.073 35.873H71.764C72.5 35.873 73.2897 35.712 74.133 35.39C74.9763 35.068 75.6433 34.424 76.134 33.458H76.456ZM89.272 24.235H88.95C88.628 23.6063 88.099 23.0543 87.363 22.579C86.6424 22.1037 85.8987 21.866 85.132 21.866H82.97C82.3567 21.866 82.05 22.1957 82.05 22.855V27.478H85.132C86.3434 27.478 87.2787 27.1177 87.938 26.397V29.709C87.8154 29.5863 87.7157 29.502 87.639 29.456C87.317 29.18 87.133 29.0267 87.087 28.996C86.627 28.7353 85.9754 28.605 85.132 28.605H82.05V34.286C82.05 34.4393 82.0577 34.5543 82.073 34.631C82.073 34.8917 82.096 35.0833 82.142 35.206C82.3567 35.6813 82.8244 35.919 83.545 35.919H86.144C86.8187 35.919 87.5317 35.7197 88.283 35.321C89.0344 34.907 89.663 34.263 90.169 33.389H90.491L89.663 37H77.841C78.1937 36.724 78.439 36.4327 78.577 36.126C78.715 35.8193 78.784 35.3977 78.784 34.861V22.901C78.784 22.349 78.715 21.9197 78.577 21.613C78.439 21.3063 78.1937 21.015 77.841 20.739H88.559L89.272 24.235ZM97.8661 20.371H98.7861L104.191 35.137C104.498 36.011 104.927 36.632 105.479 37H100.534C100.856 36.816 101.017 36.517 101.017 36.103C101.017 35.873 100.963 35.6277 100.856 35.367L99.7061 32.032H93.9561L92.9671 34.746C92.8138 35.0833 92.7371 35.39 92.7371 35.666C92.7218 36.3253 92.9748 36.77 93.4961 37H90.0461C90.5368 36.632 90.9125 36.2487 91.1731 35.85C91.2191 35.7733 91.2575 35.7043 91.2881 35.643C91.3341 35.5663 91.3725 35.4897 91.4031 35.413C91.4338 35.3363 91.4645 35.2673 91.4951 35.206C91.5411 35.16 91.5948 35.068 91.6561 34.93L95.8191 23.982C95.8651 23.8747 95.9035 23.7443 95.9341 23.591C95.9801 23.4377 96.0185 23.292 96.0491 23.154C96.0951 22.8167 96.0415 22.5407 95.8881 22.326C95.7501 22.096 95.5278 21.981 95.2211 21.981V21.843C95.6351 21.797 96.1105 21.613 96.6471 21.291C97.1838 20.969 97.5901 20.6623 97.8661 20.371ZM97.1071 24.994C97.0765 24.9327 97.0535 24.8943 97.0381 24.879C97.0381 24.8483 97.0228 24.8023 96.9921 24.741C96.9461 24.649 96.9078 24.5877 96.8771 24.557C96.8618 24.511 96.8388 24.488 96.8081 24.488C96.7775 24.488 96.7391 24.5417 96.6931 24.649C96.6471 24.7563 96.6088 24.856 96.5781 24.948L94.5081 30.629C94.5081 30.6443 94.4928 30.6827 94.4621 30.744C94.4468 30.79 94.4315 30.836 94.4161 30.882C94.4161 31.02 94.4161 31.089 94.4161 31.089C94.4315 31.135 94.5465 31.158 94.7611 31.158H98.8091H98.9931C99.0545 31.158 99.1081 31.1657 99.1541 31.181C99.2155 31.181 99.2538 31.1733 99.2691 31.158C99.2845 31.1273 99.2768 31.066 99.2461 30.974C99.2155 30.882 99.2001 30.813 99.2001 30.767L97.1071 24.994ZM106.654 20.739H112.404C114.49 20.739 116.552 21.222 118.591 22.188C120.631 23.154 121.673 25.3007 121.719 28.628C121.75 29.9773 121.459 31.2883 120.845 32.561C120.232 33.8337 119.251 34.8763 117.901 35.689C116.567 36.5017 114.873 36.931 112.818 36.977L111.162 37H106.654C107.268 36.5247 107.574 35.8117 107.574 34.861V22.901C107.574 21.9503 107.268 21.2297 106.654 20.739ZM110.84 34.309C110.84 34.9377 110.894 35.367 111.001 35.597C111.124 35.8117 111.569 35.9267 112.335 35.942C113.424 35.9727 114.405 35.7657 115.279 35.321C116.153 34.861 116.836 34.102 117.326 33.044C117.832 31.9707 118.078 30.583 118.062 28.881C118.062 26.0137 117.533 24.1353 116.475 23.246C115.417 22.3567 114.244 21.889 112.956 21.843C112.374 21.7817 111.914 21.7893 111.576 21.866C111.239 21.9273 111.017 22.1267 110.909 22.464C110.863 22.602 110.84 22.8167 110.84 23.108V23.752V34.309ZM135.38 24.235H135.058C134.736 23.6063 134.207 23.0543 133.471 22.579C132.75 22.1037 132.007 21.866 131.24 21.866H129.078C128.465 21.866 128.158 22.1957 128.158 22.855V27.478H131.24C132.451 27.478 133.387 27.1177 134.046 26.397V29.709C133.923 29.5863 133.824 29.502 133.747 29.456C133.425 29.18 133.241 29.0267 133.195 28.996C132.735 28.7353 132.083 28.605 131.24 28.605H128.158V34.286C128.158 34.4393 128.166 34.5543 128.181 34.631C128.181 34.8917 128.204 35.0833 128.25 35.206C128.465 35.6813 128.932 35.919 129.653 35.919H132.252C132.927 35.919 133.64 35.7197 134.391 35.321C135.142 34.907 135.771 34.263 136.277 33.389H136.599L135.771 37H123.949C124.302 36.724 124.547 36.4327 124.685 36.126C124.823 35.8193 124.892 35.3977 124.892 34.861V22.901C124.892 22.349 124.823 21.9197 124.685 21.613C124.547 21.3063 124.302 21.015 123.949 20.739H134.667L135.38 24.235ZM137.971 20.739C139.259 20.601 140.187 20.5167 140.754 20.486C141.321 20.44 141.858 20.417 142.364 20.417C142.885 20.4017 143.192 20.4017 143.284 20.417C145.001 20.4323 146.381 20.6777 147.424 21.153C148.482 21.613 149.241 22.1573 149.701 22.786C150.161 23.3993 150.46 23.9667 150.598 24.488C150.736 25.0093 150.805 25.4233 150.805 25.73C150.851 27.0487 150.46 28.0223 149.632 28.651C148.804 29.2797 147.907 29.7167 146.941 29.962C147.232 31.3727 147.907 32.9597 148.965 34.723C150.023 36.471 151.073 37.736 152.116 38.518L151.702 39.047C150.429 38.2957 149.295 37.483 148.298 36.609C147.301 35.7197 146.435 34.7767 145.699 33.78C144.963 32.7833 144.311 31.618 143.744 30.284C143.269 30.284 142.747 30.2457 142.18 30.169V34.861C142.18 35.827 142.487 36.54 143.1 37H137.971C138.584 36.5553 138.891 35.8423 138.891 34.861V22.901C138.891 21.9197 138.584 21.199 137.971 20.739ZM142.18 29.18C142.517 29.272 142.954 29.318 143.491 29.318C145.929 29.2107 147.148 27.8843 147.148 25.339C147.148 24.2197 146.887 23.3687 146.366 22.786C145.845 22.188 145.27 21.8047 144.641 21.636C144.028 21.452 143.514 21.383 143.1 21.429C142.717 21.4443 142.464 21.5593 142.341 21.774C142.234 21.9887 142.18 22.326 142.18 22.786V29.18ZM76.571 51.086H75.812C75.628 50.396 75.3443 49.7673 74.961 49.2C74.5777 48.6173 74.1177 48.1727 73.581 47.866C73.0597 47.5593 72.4847 47.3907 71.856 47.36C71.1047 47.36 70.3687 47.6283 69.648 48.165C68.9427 48.6863 68.36 49.522 67.9 50.672C67.4553 51.8067 67.21 53.2863 67.164 55.111C67.118 56.9357 67.3173 58.4 67.762 59.504C68.222 60.5927 68.8123 61.367 69.533 61.827C70.2537 62.287 71.0127 62.494 71.81 62.448C72.9907 62.3713 73.9413 61.9037 74.662 61.045C75.398 60.1863 75.9347 59.2663 76.272 58.285H76.985L76.571 62.057C76.0037 62.425 75.1987 62.7317 74.156 62.977C73.1133 63.207 72.155 63.322 71.281 63.322C69.0577 63.322 67.187 62.5323 65.669 60.953C64.151 59.3737 63.392 57.411 63.392 55.065C63.4073 53.4243 63.7523 51.937 64.427 50.603C65.1017 49.269 66.037 48.234 67.233 47.498C68.429 46.7467 69.7783 46.371 71.281 46.371C72.4157 46.371 73.466 46.5627 74.432 46.946C75.398 47.3293 76.111 47.6743 76.571 47.981V51.086ZM91.3162 59.458L90.6032 63H78.8272C79.1645 62.7393 79.3945 62.448 79.5172 62.126C79.6552 61.804 79.7242 61.3823 79.7242 60.861V48.901C79.7242 48.3643 79.6552 47.935 79.5172 47.613C79.3945 47.2757 79.1645 46.9843 78.8272 46.739H83.9332C83.3198 47.199 83.0132 47.9197 83.0132 48.901V49.476V60.884C83.0132 61.5433 83.3198 61.873 83.9332 61.873H86.6242C87.3602 61.873 88.1498 61.712 88.9932 61.39C89.8365 61.068 90.5035 60.424 90.9942 59.458H91.3162ZM98.4052 46.371H99.3252L104.73 61.137C105.037 62.011 105.466 62.632 106.018 63H101.073C101.395 62.816 101.556 62.517 101.556 62.103C101.556 61.873 101.503 61.6277 101.395 61.367L100.245 58.032H94.4952L93.5062 60.746C93.3529 61.0833 93.2762 61.39 93.2762 61.666C93.2609 62.3253 93.5139 62.77 94.0352 63H90.5852C91.0759 62.632 91.4515 62.2487 91.7122 61.85C91.7582 61.7733 91.7965 61.7043 91.8272 61.643C91.8732 61.5663 91.9115 61.4897 91.9422 61.413C91.9729 61.3363 92.0035 61.2673 92.0342 61.206C92.0802 61.16 92.1339 61.068 92.1952 60.93L96.3582 49.982C96.4042 49.8747 96.4425 49.7443 96.4732 49.591C96.5192 49.4377 96.5575 49.292 96.5882 49.154C96.6342 48.8167 96.5805 48.5407 96.4272 48.326C96.2892 48.096 96.0669 47.981 95.7602 47.981V47.843C96.1742 47.797 96.6495 47.613 97.1862 47.291C97.7229 46.969 98.1292 46.6623 98.4052 46.371ZM97.6462 50.994C97.6155 50.9327 97.5925 50.8943 97.5772 50.879C97.5772 50.8483 97.5619 50.8023 97.5312 50.741C97.4852 50.649 97.4469 50.5877 97.4162 50.557C97.4009 50.511 97.3779 50.488 97.3472 50.488C97.3165 50.488 97.2782 50.5417 97.2322 50.649C97.1862 50.7563 97.1479 50.856 97.1172 50.948L95.0472 56.629C95.0472 56.6443 95.0319 56.6827 95.0012 56.744C94.9859 56.79 94.9705 56.836 94.9552 56.882C94.9552 57.02 94.9552 57.089 94.9552 57.089C94.9705 57.135 95.0855 57.158 95.3002 57.158H99.3482H99.5322C99.5935 57.158 99.6472 57.1657 99.6932 57.181C99.7545 57.181 99.7929 57.1733 99.8082 57.158C99.8235 57.1273 99.8159 57.066 99.7852 56.974C99.7545 56.882 99.7392 56.813 99.7392 56.767L97.6462 50.994ZM117.428 50.695H116.968C116.692 49.821 116.117 49.0697 115.243 48.441C114.369 47.797 113.457 47.475 112.506 47.475C111.678 47.475 111.034 47.7127 110.574 48.188C110.114 48.648 109.884 49.1693 109.884 49.752C109.884 50.4267 110.183 50.994 110.781 51.454C110.996 51.6227 111.441 51.891 112.115 52.259C114.707 53.547 116.478 54.605 117.428 55.433C118.379 56.261 118.847 57.3113 118.831 58.584C118.816 59.9947 118.233 61.137 117.083 62.011C115.949 62.885 114.553 63.322 112.897 63.322C111.471 63.322 109.769 62.9463 107.791 62.195L107.377 58.768H107.791C108.282 59.826 109.018 60.6693 109.999 61.298C110.981 61.9267 111.947 62.264 112.897 62.31C113.817 62.31 114.592 62.0953 115.22 61.666C115.864 61.2367 116.179 60.6003 116.163 59.757C116.163 59.159 115.941 58.6377 115.496 58.193C115.067 57.733 114.3 57.2193 113.196 56.652C112.828 56.4373 112.069 56.0463 110.919 55.479C109.785 54.835 108.934 54.191 108.366 53.547C107.814 52.903 107.515 52.0367 107.469 50.948C107.454 50.0127 107.669 49.2 108.113 48.51C108.573 47.8047 109.202 47.2757 109.999 46.923C110.812 46.555 111.709 46.371 112.69 46.371C114.316 46.417 115.826 46.8463 117.221 47.659L117.428 50.695ZM131.21 50.695H130.75C130.474 49.821 129.899 49.0697 129.025 48.441C128.151 47.797 127.239 47.475 126.288 47.475C125.46 47.475 124.816 47.7127 124.356 48.188C123.896 48.648 123.666 49.1693 123.666 49.752C123.666 50.4267 123.965 50.994 124.563 51.454C124.778 51.6227 125.223 51.891 125.897 52.259C128.489 53.547 130.26 54.605 131.21 55.433C132.161 56.261 132.629 57.3113 132.613 58.584C132.598 59.9947 132.015 61.137 130.865 62.011C129.731 62.885 128.335 63.322 126.679 63.322C125.253 63.322 123.551 62.9463 121.573 62.195L121.159 58.768H121.573C122.064 59.826 122.8 60.6693 123.781 61.298C124.763 61.9267 125.729 62.264 126.679 62.31C127.599 62.31 128.374 62.0953 129.002 61.666C129.646 61.2367 129.961 60.6003 129.945 59.757C129.945 59.159 129.723 58.6377 129.278 58.193C128.849 57.733 128.082 57.2193 126.978 56.652C126.61 56.4373 125.851 56.0463 124.701 55.479C123.567 54.835 122.716 54.191 122.148 53.547C121.596 52.903 121.297 52.0367 121.251 50.948C121.236 50.0127 121.451 49.2 121.895 48.51C122.355 47.8047 122.984 47.2757 123.781 46.923C124.594 46.555 125.491 46.371 126.472 46.371C128.098 46.417 129.608 46.8463 131.003 47.659L131.21 50.695ZM135.102 46.739H140.208C139.58 47.2143 139.265 47.935 139.265 48.901V60.861C139.265 61.8423 139.58 62.5553 140.208 63H135.102C135.44 62.7393 135.67 62.448 135.792 62.126C135.93 61.804 135.999 61.3823 135.999 60.861V48.901C135.999 48.3643 135.93 47.935 135.792 47.613C135.67 47.2757 135.44 46.9843 135.102 46.739ZM155.714 51.086H154.955C154.771 50.396 154.488 49.7673 154.104 49.2C153.721 48.6173 153.261 48.1727 152.724 47.866C152.203 47.5593 151.628 47.3907 150.999 47.36C150.248 47.36 149.512 47.6283 148.791 48.165C148.086 48.6863 147.503 49.522 147.043 50.672C146.599 51.8067 146.353 53.2863 146.307 55.111C146.261 56.9357 146.461 58.4 146.905 59.504C147.365 60.5927 147.956 61.367 148.676 61.827C149.397 62.287 150.156 62.494 150.953 62.448C152.134 62.3713 153.085 61.9037 153.805 61.045C154.541 60.1863 155.078 59.2663 155.415 58.285H156.128L155.714 62.057C155.147 62.425 154.342 62.7317 153.299 62.977C152.257 63.207 151.298 63.322 150.424 63.322C148.201 63.322 146.33 62.5323 144.812 60.953C143.294 59.3737 142.535 57.411 142.535 55.065C142.551 53.4243 142.896 51.937 143.57 50.603C144.245 49.269 145.18 48.234 146.376 47.498C147.572 46.7467 148.922 46.371 150.424 46.371C151.559 46.371 152.609 46.5627 153.575 46.946C154.541 47.3293 155.254 47.6743 155.714 47.981V51.086Z" fill="white"/>
<defs>
<linearGradient id="paint0_linear_784_5" x1="6.97561" y1="22.9286" x2="34.1346" y2="65.6665" gradientUnits="userSpaceOnUse">
<stop stop-color="#DD6C30"/>
<stop offset="0.6875" stop-color="#E4864F"/>
<stop offset="1" stop-color="#FBB773"/>
<stop offset="1" stop-color="#FBB773"/>
</linearGradient>
<linearGradient id="paint1_linear_784_5" x1="6.97561" y1="22.9286" x2="34.1346" y2="65.6665" gradientUnits="userSpaceOnUse">
<stop stop-color="#DD6C30"/>
<stop offset="0.6875" stop-color="#E4864F"/>
<stop offset="1" stop-color="#FBB773"/>
<stop offset="1" stop-color="#FBB773"/>
</linearGradient>
<linearGradient id="paint2_linear_784_5" x1="6.97561" y1="22.9286" x2="34.1346" y2="65.6665" gradientUnits="userSpaceOnUse">
<stop stop-color="#DD6C30"/>
<stop offset="0.6875" stop-color="#E4864F"/>
<stop offset="1" stop-color="#FBB773"/>
<stop offset="1" stop-color="#FBB773"/>
</linearGradient>
</defs>
</svg>
