<svg width="64" height="31" viewBox="0 0 64 31" fill="none" xmlns="http://www.w3.org/2000/svg">
<g clip-path="url(#clip0_367_4)">
<path d="M29.5566 8.48047H30.834V17H29.5566V8.48047ZM30.1543 15.7754H33.1543V17H30.1543V15.7754ZM34.2746 8.48047H35.552V17H34.2746V8.48047ZM34.884 15.7637H37.9895V17H34.884V15.7637ZM34.884 12.1543H37.6965V13.3848H34.884V12.1543ZM34.884 8.48047H37.9895V9.7168H34.884V8.48047ZM40.6977 8.48047H41.7172L43.7152 17H42.4027L41.2074 10.8184L40.0121 17H38.6996L40.6977 8.48047ZM40.018 14.2051H42.4438V15.4062H40.018V14.2051ZM45.5504 15.7754H46.8746C47.0738 15.7754 47.2262 15.7168 47.3316 15.5996C47.441 15.4785 47.4957 15.3086 47.4957 15.0898V10.3906C47.4957 10.1719 47.441 10.0039 47.3316 9.88672C47.2262 9.76562 47.0738 9.70508 46.8746 9.70508H45.5504V8.48047H46.9332C47.3238 8.48047 47.6578 8.55273 47.9352 8.69727C48.2125 8.8418 48.4234 9.05273 48.568 9.33008C48.7125 9.60352 48.7848 9.93555 48.7848 10.3262V15.1543C48.7848 15.541 48.7105 15.873 48.5621 16.1504C48.4176 16.4277 48.2066 16.6387 47.9293 16.7832C47.652 16.9277 47.318 17 46.9273 17H45.5504V15.7754ZM44.7184 8.48047H45.9957V17H44.7184V8.48047ZM50.198 8.48047H51.4754V17H50.198V8.48047ZM50.8074 15.7637H53.9129V17H50.8074V15.7637ZM50.8074 12.1543H53.6199V13.3848H50.8074V12.1543ZM50.8074 8.48047H53.9129V9.7168H50.8074V8.48047ZM55.6133 12.1719H57.166C57.3301 12.1719 57.4707 12.1426 57.5879 12.084C57.7051 12.0254 57.793 11.9395 57.8516 11.8262C57.9141 11.7129 57.9453 11.5762 57.9453 11.416V10.5137C57.9453 10.3418 57.9141 10.1953 57.8516 10.0742C57.793 9.94922 57.7051 9.85547 57.5879 9.79297C57.4707 9.73047 57.3301 9.69922 57.166 9.69922H55.6133V8.47461H57.0723C57.5293 8.47461 57.9199 8.55078 58.2441 8.70312C58.5723 8.85156 58.8203 9.07227 58.9883 9.36523C59.1602 9.6543 59.2461 10.002 59.2461 10.4082V11.4043C59.2461 11.8223 59.1602 12.1816 58.9883 12.4824C58.8203 12.7793 58.5723 13.0059 58.2441 13.1621C57.9199 13.3184 57.5293 13.3965 57.0723 13.3965H55.6133V12.1719ZM55.0332 8.47461H56.2988V17H55.0332V8.47461ZM56.9434 13.1328L58.127 12.8633L59.4863 17H58.1035L56.9434 13.1328ZM31.5664 28.0879C31.1445 28.0879 30.7832 28.002 30.4824 27.8301C30.1816 27.6582 29.9512 27.4102 29.791 27.0859C29.6348 26.7617 29.5566 26.3711 29.5566 25.9141V21.5723C29.5566 21.1113 29.6348 20.7188 29.791 20.3945C29.9512 20.0703 30.1816 19.8223 30.4824 19.6504C30.7832 19.4785 31.1445 19.3926 31.5664 19.3926C31.9883 19.3926 32.3496 19.4785 32.6504 19.6504C32.9551 19.8223 33.1855 20.0723 33.3418 20.4004C33.498 20.7246 33.5762 21.1152 33.5762 21.5723V22.0938H32.2812V21.5723C32.2812 21.3809 32.2539 21.2188 32.1992 21.0859C32.1445 20.9492 32.0625 20.8457 31.9531 20.7754C31.8477 20.7051 31.7188 20.6699 31.5664 20.6699C31.418 20.6699 31.2891 20.7051 31.1797 20.7754C31.0742 20.8457 30.9922 20.9492 30.9336 21.0859C30.8789 21.2188 30.8516 21.3809 30.8516 21.5723V25.9141C30.8516 26.1016 30.8789 26.2637 30.9336 26.4004C30.9922 26.5332 31.0742 26.6348 31.1797 26.7051C31.2891 26.7754 31.418 26.8105 31.5664 26.8105C31.7188 26.8105 31.8477 26.7754 31.9531 26.7051C32.0625 26.6348 32.1445 26.5332 32.1992 26.4004C32.2539 26.2637 32.2812 26.0996 32.2812 25.9082V25.3867H33.5762V25.9082C33.5762 26.3652 33.498 26.7578 33.3418 27.0859C33.1855 27.4102 32.9551 27.6582 32.6504 27.8301C32.3496 28.002 31.9883 28.0879 31.5664 28.0879ZM34.5723 19.4805H35.8496V28H34.5723V19.4805ZM35.1699 26.7754H38.1699V28H35.1699V26.7754ZM40.5781 19.4805H41.5977L43.5957 28H42.2832L41.0879 21.8184L39.8926 28H38.5801L40.5781 19.4805ZM39.8984 25.2051H42.3242V26.4062H39.8984V25.2051ZM46.1387 28.0879C45.6934 28.0879 45.3125 28.0078 44.9961 27.8477C44.6836 27.6875 44.4453 27.4551 44.2812 27.1504C44.1172 26.8418 44.0352 26.4707 44.0352 26.0371V25.5977L45.3125 25.5918V26.0078C45.3125 26.2695 45.3828 26.4727 45.5234 26.6172C45.668 26.7617 45.873 26.834 46.1387 26.834C46.3926 26.834 46.5879 26.7637 46.7246 26.623C46.8652 26.4785 46.9355 26.2754 46.9355 26.0137V25.2695C46.9355 25.0859 46.8867 24.9297 46.7891 24.8008C46.6953 24.6719 46.5762 24.5645 46.4316 24.4785C46.2871 24.3887 46.0879 24.2832 45.834 24.1621C45.8223 24.1582 45.8105 24.1543 45.7988 24.1504C45.7871 24.1426 45.7754 24.1367 45.7637 24.1328L45.6875 24.0977C45.3477 23.9336 45.0645 23.7695 44.8379 23.6055C44.6152 23.4414 44.4258 23.2188 44.2695 22.9375C44.1172 22.6562 44.041 22.3047 44.041 21.8828V21.4141C44.041 20.9883 44.1211 20.625 44.2812 20.3242C44.4453 20.0195 44.6836 19.7891 44.9961 19.6328C45.3086 19.4727 45.6855 19.3926 46.127 19.3926C46.5605 19.3926 46.9297 19.4727 47.2344 19.6328C47.5391 19.7891 47.7695 20.0215 47.9258 20.3301C48.0859 20.6348 48.166 21.0039 48.166 21.4375V21.9004L46.8887 21.9121V21.4668C46.8887 21.2012 46.8223 20.998 46.6895 20.8574C46.5605 20.7129 46.373 20.6406 46.127 20.6406C45.8652 20.6406 45.6641 20.707 45.5234 20.8398C45.3867 20.9727 45.3184 21.1602 45.3184 21.4023V21.9531C45.3184 22.1406 45.3652 22.3008 45.459 22.4336C45.5527 22.5664 45.668 22.6758 45.8047 22.7617C45.9453 22.8477 46.1387 22.9473 46.3848 23.0605C46.4199 23.0762 46.4551 23.0938 46.4902 23.1133C46.5254 23.1289 46.5605 23.1465 46.5957 23.166C46.6113 23.1699 46.625 23.1758 46.6367 23.1836C46.6523 23.1914 46.666 23.1973 46.6777 23.2012C47.0098 23.3652 47.2773 23.5195 47.4805 23.6641C47.6836 23.8047 47.8555 24.0078 47.9961 24.2734C48.1406 24.5352 48.2129 24.875 48.2129 25.293V26.0371C48.2129 26.4707 48.1328 26.8418 47.9727 27.1504C47.8125 27.4551 47.5762 27.6875 47.2637 27.8477C46.9551 28.0078 46.5801 28.0879 46.1387 28.0879ZM51.3184 28.0879C50.873 28.0879 50.4922 28.0078 50.1758 27.8477C49.8633 27.6875 49.625 27.4551 49.4609 27.1504C49.2969 26.8418 49.2148 26.4707 49.2148 26.0371V25.5977L50.4922 25.5918V26.0078C50.4922 26.2695 50.5625 26.4727 50.7031 26.6172C50.8477 26.7617 51.0527 26.834 51.3184 26.834C51.5723 26.834 51.7676 26.7637 51.9043 26.623C52.0449 26.4785 52.1152 26.2754 52.1152 26.0137V25.2695C52.1152 25.0859 52.0664 24.9297 51.9688 24.8008C51.875 24.6719 51.7559 24.5645 51.6113 24.4785C51.4668 24.3887 51.2676 24.2832 51.0137 24.1621C51.002 24.1582 50.9902 24.1543 50.9785 24.1504C50.9668 24.1426 50.9551 24.1367 50.9434 24.1328L50.8672 24.0977C50.5273 23.9336 50.2441 23.7695 50.0176 23.6055C49.7949 23.4414 49.6055 23.2188 49.4492 22.9375C49.2969 22.6562 49.2207 22.3047 49.2207 21.8828V21.4141C49.2207 20.9883 49.3008 20.625 49.4609 20.3242C49.625 20.0195 49.8633 19.7891 50.1758 19.6328C50.4883 19.4727 50.8652 19.3926 51.3066 19.3926C51.7402 19.3926 52.1094 19.4727 52.4141 19.6328C52.7188 19.7891 52.9492 20.0215 53.1055 20.3301C53.2656 20.6348 53.3457 21.0039 53.3457 21.4375V21.9004L52.0684 21.9121V21.4668C52.0684 21.2012 52.002 20.998 51.8691 20.8574C51.7402 20.7129 51.5527 20.6406 51.3066 20.6406C51.0449 20.6406 50.8438 20.707 50.7031 20.8398C50.5664 20.9727 50.498 21.1602 50.498 21.4023V21.9531C50.498 22.1406 50.5449 22.3008 50.6387 22.4336C50.7324 22.5664 50.8477 22.6758 50.9844 22.7617C51.125 22.8477 51.3184 22.9473 51.5645 23.0605C51.5996 23.0762 51.6348 23.0938 51.6699 23.1133C51.7051 23.1289 51.7402 23.1465 51.7754 23.166C51.791 23.1699 51.8047 23.1758 51.8164 23.1836C51.832 23.1914 51.8457 23.1973 51.8574 23.2012C52.1895 23.3652 52.457 23.5195 52.6602 23.6641C52.8633 23.8047 53.0352 24.0078 53.1758 24.2734C53.3203 24.5352 53.3926 24.875 53.3926 25.293V26.0371C53.3926 26.4707 53.3125 26.8418 53.1523 27.1504C52.9922 27.4551 52.7559 27.6875 52.4434 27.8477C52.1348 28.0078 51.7598 28.0879 51.3184 28.0879ZM55.6953 28H54.418V19.4805H55.6953V28ZM58.7539 28.0879C58.332 28.0879 57.9707 28.002 57.6699 27.8301C57.3691 27.6582 57.1387 27.4102 56.9785 27.0859C56.8223 26.7617 56.7441 26.3711 56.7441 25.9141V21.5723C56.7441 21.1113 56.8223 20.7188 56.9785 20.3945C57.1387 20.0703 57.3691 19.8223 57.6699 19.6504C57.9707 19.4785 58.332 19.3926 58.7539 19.3926C59.1758 19.3926 59.5371 19.4785 59.8379 19.6504C60.1426 19.8223 60.373 20.0723 60.5293 20.4004C60.6855 20.7246 60.7637 21.1152 60.7637 21.5723V22.0938H59.4688V21.5723C59.4688 21.3809 59.4414 21.2188 59.3867 21.0859C59.332 20.9492 59.25 20.8457 59.1406 20.7754C59.0352 20.7051 58.9062 20.6699 58.7539 20.6699C58.6055 20.6699 58.4766 20.7051 58.3672 20.7754C58.2617 20.8457 58.1797 20.9492 58.1211 21.0859C58.0664 21.2188 58.0391 21.3809 58.0391 21.5723V25.9141C58.0391 26.1016 58.0664 26.2637 58.1211 26.4004C58.1797 26.5332 58.2617 26.6348 58.3672 26.7051C58.4766 26.7754 58.6055 26.8105 58.7539 26.8105C58.9062 26.8105 59.0352 26.7754 59.1406 26.7051C59.25 26.6348 59.332 26.5332 59.3867 26.4004C59.4414 26.2637 59.4688 26.0996 59.4688 25.9082V25.3867H60.7637V25.9082C60.7637 26.3652 60.6855 26.7578 60.5293 27.0859C60.373 27.4102 60.1426 27.6582 59.8379 27.8301C59.5371 28.002 59.1758 28.0879 58.7539 28.0879Z" fill="white"/>
</g>
<path d="M5.40242 9H0L2.8601 10.9254L2.82038 23.4627L3.019 24.1791L3.41623 24.9851L3.93264 25.6119L10.7254 30V28.0299V27.6716L10.6857 27.403L10.5268 27.0896L9.65285 25.8358L5.40242 23.1045V9Z" fill="url(#paint0_linear_367_4)"/>
<path d="M19.0674 25.5224L12.1554 30V10.8358L12.1952 10.2985L12.3143 9.85075L12.4732 9.53731L12.8307 9.1791L13.228 9H23L20.1796 11.0597V14.4627L17.5579 16.1194V11.9552H14.8964V24.8507L17.5181 23.0597V19.6567L20.1399 18V21V23.6418L19.981 24.1791L19.8221 24.5821L19.4646 25.0746L19.0674 25.5224Z" fill="url(#paint1_linear_367_4)"/>
<path d="M10.8048 9H6.7133L8.18307 10.0299V21.2687L10.8048 23.1045V9Z" fill="url(#paint2_linear_367_4)"/>
<path d="M11 9V23L8.41176 21.1594V10.004L7 9H11Z" fill="white"/>
<path d="M4 8V7.01124H7.26687L5.42638 2.1573C8.12036 2.97008 9.8354 3.36789 8.09509 5.4382C9.48314 6.5937 10.1129 6.46824 10.9479 4.76404C8.9185 4.10736 9.83022 2.64025 11.5 0C13.198 2.55276 14.0925 3.95891 12.0982 4.89888C12.8537 6.38768 13.4242 6.6733 14.9049 5.4382C14.5524 5.22184 14.1687 4.85393 14.0767 4.04494C13.9847 3.23595 16.061 2.45551 17.5736 2.1573L15.7331 7.01124H19V8H4Z" fill="white"/>
<defs>
<linearGradient id="paint0_linear_367_4" x1="11.5" y1="9" x2="11.5" y2="30" gradientUnits="userSpaceOnUse">
<stop stop-color="#926C47"/>
<stop offset="1" stop-color="#F8ECCD"/>
</linearGradient>
<linearGradient id="paint1_linear_367_4" x1="11.5" y1="9" x2="11.5" y2="30" gradientUnits="userSpaceOnUse">
<stop stop-color="#926C47"/>
<stop offset="1" stop-color="#F8ECCD"/>
</linearGradient>
<linearGradient id="paint2_linear_367_4" x1="11.5" y1="9" x2="11.5" y2="30" gradientUnits="userSpaceOnUse">
<stop stop-color="#926C47"/>
<stop offset="1" stop-color="#F8ECCD"/>
</linearGradient>
<clipPath id="clip0_367_4">
<rect width="35" height="24" fill="white" transform="translate(29 7)"/>
</clipPath>
</defs>
</svg>
