<svg width="8" height="11" viewBox="0 0 8 11" fill="none" xmlns="http://www.w3.org/2000/svg">
<path d="M6.94101 3.73158C7.16556 3.47033 7.52919 3.47033 7.75392 3.73158C7.9781 3.99241 7.97827 4.41591 7.75392 4.67716L4.36756 8.61727C4.14338 8.87829 3.77938 8.87808 3.55501 8.61706C3.33065 8.35602 3.33065 7.93274 3.55483 7.67149L6.94101 3.73158Z" fill="white"/>
<path d="M0.16825 4.67727C-0.0561137 4.41623 -0.0561137 3.99273 0.168432 3.73148C0.392796 3.47023 0.756613 3.47044 0.98116 3.73169L4.36752 7.67138C4.59187 7.93263 4.59227 8.35592 4.36771 8.61717C4.14334 8.8784 3.77934 8.8784 3.5548 8.61717L0.16825 4.67727Z" fill="white"/>
<path d="M7.26478 9.54907C7.58242 9.54907 7.83949 9.84819 7.83949 10.2177C7.83949 10.5867 7.58224 10.8862 7.26495 10.8862L0.657494 10.8864C0.340221 10.8866 0.0831299 10.5871 0.0831299 10.2177C0.0831299 9.84861 0.340403 9.54928 0.657494 9.54928L7.26478 9.54907Z" fill="white"/>
<path d="M3.38623 0.668674C3.38623 0.299115 3.64332 0 3.96096 0C4.27805 0 4.5355 0.299327 4.5355 0.668459L4.53568 8.14424C4.53587 8.51358 4.27841 8.81268 3.96096 8.81268C3.64369 8.81268 3.38641 8.51337 3.38641 8.14424L3.38623 0.668674Z" fill="white"/>
</svg>
