<svg width="40" height="40" viewBox="0 0 40 40" fill="none" xmlns="http://www.w3.org/2000/svg">
<rect y="0.706032" width="27.2414" height="27.2414" transform="matrix(0.70818 0.706032 -0.70818 0.706032 20.5 0.207551)" stroke="black"/>
<g clip-path="url(#clip0)">
<path d="M27.8663 22.8544C27.826 22.7869 27.5766 22.245 26.3765 21.1312C25.1202 19.9649 25.2889 20.1542 26.8022 18.1375C27.7238 16.9093 28.0923 16.1593 27.9769 15.8386C27.8672 15.533 27.1894 15.6136 27.1894 15.6136L24.9355 15.6267C24.9355 15.6267 24.7686 15.6042 24.6439 15.6783C24.5229 15.7514 24.4451 15.9202 24.4451 15.9202C24.4451 15.9202 24.0879 16.8709 23.6116 17.6791C22.6075 19.3845 22.2053 19.4745 22.0412 19.3686C21.6596 19.122 21.7552 18.3766 21.7552 17.8478C21.7552 16.1949 22.0056 15.5058 21.2668 15.3276C21.0211 15.2686 20.8411 15.2292 20.2139 15.2226C19.4094 15.2142 18.7278 15.2254 18.3425 15.4139C18.0856 15.5395 17.8878 15.8199 18.0087 15.8358C18.1578 15.8555 18.4953 15.9267 18.6744 16.1705C18.906 16.4846 18.8975 17.1915 18.8975 17.1915C18.8975 17.1915 19.0307 19.137 18.5872 19.3789C18.2825 19.5448 17.8653 19.2064 16.9699 17.6584C16.5114 16.8662 16.1645 15.9896 16.1645 15.9896C16.1645 15.9896 16.0979 15.8264 15.9789 15.7392C15.8345 15.6333 15.632 15.5995 15.632 15.5995L13.4887 15.6127C13.4887 15.6127 13.1671 15.622 13.049 15.7617C12.944 15.8864 13.0405 16.1433 13.0405 16.1433C13.0405 16.1433 14.7188 20.0689 16.6183 22.0481C18.3612 23.8623 20.3395 23.7433 20.3395 23.7433H21.2358C21.2358 23.7433 21.5068 23.7133 21.6446 23.5642C21.7721 23.4273 21.7674 23.1704 21.7674 23.1704C21.7674 23.1704 21.7496 21.9675 22.3084 21.7903C22.8588 21.6159 23.5657 22.9529 24.3148 23.4676C24.8811 23.8567 25.3114 23.7714 25.3114 23.7714L27.315 23.7433C27.315 23.7433 28.3632 23.6786 27.8663 22.8544Z" fill="#597da3 "/>
</g>
<defs>
<clipPath id="clip0">
<rect x="13" y="12" width="15" height="15" fill="white"/>
</clipPath>
</defs>
</svg>
