<svg width="126" height="127" viewBox="0 0 126 127" fill="none" xmlns="http://www.w3.org/2000/svg">
<rect y="1.41434" width="86.8263" height="86.8263" transform="matrix(0.707046 0.707168 -0.707046 0.707168 63.8043 1.32951)" stroke="black" stroke-width="2"/>
<g clip-path="url(#clip0)">
<path d="M74.014 68.4024L73.996 68.5617C69.598 66.2327 69.138 65.9225 68.57 66.8277C68.176 67.4546 67.028 68.8762 66.682 69.297C66.332 69.7114 65.984 69.7432 65.39 69.4564C64.79 69.1376 62.864 68.4682 60.584 66.3007C58.808 64.6114 57.616 62.5395 57.264 61.902C56.678 60.8267 57.904 60.6737 59.02 58.4297C59.22 57.9835 59.118 57.6329 58.97 57.3162C58.82 56.9975 57.626 53.8737 57.126 52.6285C56.646 51.3875 56.152 51.5447 55.782 51.5447C54.63 51.4385 53.788 51.4555 53.046 52.2757C49.818 56.0455 50.632 59.9342 53.394 64.0695C58.822 71.6175 61.714 73.0072 67.002 74.9367C68.43 75.4191 69.732 75.3511 70.762 75.1939C71.91 75.0005 74.296 73.6617 74.794 72.1636C75.304 70.6655 75.304 69.4224 75.154 69.1355C75.006 68.8486 74.614 68.6892 74.014 68.4024V68.4024Z" fill="#4AC959"/>
<path d="M80.04 45.3284C64.662 29.5333 39.212 40.9891 39.202 63.2719C39.202 67.7259 40.3 72.0694 42.392 75.905L39 88.9993L51.67 85.4888C67.48 94.5625 86.992 82.5138 87 63.2846C87 56.5356 84.52 50.184 80.01 45.4113L80.04 45.3284ZM83.004 63.2145C82.992 79.4346 66.234 89.5645 52.98 81.2855L52.26 80.8308L44.76 82.9026L46.77 75.157L46.292 74.3601C38.044 60.4095 47.52 42.177 63.144 42.177C68.452 42.177 73.434 44.3764 77.186 48.3608C80.936 52.3111 83.004 57.6045 83.004 63.2145V63.2145Z" fill="#4AC959"/>
</g>
<defs>
<clipPath id="clip0">
<rect x="39" y="38" width="48" height="51" fill="white"/>
</clipPath>
</defs>
</svg>
