<svg width="127" height="127" viewBox="0 0 127 127" fill="none" xmlns="http://www.w3.org/2000/svg">
<rect y="1.41434" width="86.8263" height="86.8263" transform="matrix(0.707046 0.707168 -0.707046 0.707168 64.7205 1.32951)" stroke="black" stroke-width="2"/>
<g clip-path="url(#clip0)">
<path d="M88.4522 75.0892C88.3178 74.8642 87.4867 73.058 83.4871 69.3456C79.3 65.4582 79.8624 66.0894 84.9057 59.3677C87.9772 55.2741 89.2052 52.7742 88.8209 51.7055C88.4553 50.6867 86.1962 50.9555 86.1962 50.9555L78.6844 50.9992C78.6844 50.9992 78.1282 50.9242 77.7126 51.1711C77.3095 51.4148 77.0502 51.9773 77.0502 51.9773C77.0502 51.9773 75.8597 55.146 74.2723 57.8397C70.9258 63.5239 69.5853 63.8239 69.0385 63.4707C67.7667 62.6489 68.0854 60.1646 68.0854 58.4021C68.0854 52.8929 68.9197 50.5961 66.4575 50.0024C65.6388 49.8055 65.0389 49.6743 62.9485 49.6524C60.2675 49.6243 57.9958 49.6618 56.7116 50.2899C55.8554 50.7086 55.1961 51.643 55.5992 51.6961C56.096 51.7617 57.2209 51.9992 57.8177 52.8117C58.5895 53.8585 58.5614 56.2147 58.5614 56.2147C58.5614 56.2147 59.0051 62.6989 57.5271 63.5051C56.5116 64.0582 55.1211 62.9301 52.137 57.7709C50.609 55.1304 49.4529 52.2086 49.4529 52.2086C49.4529 52.2086 49.2311 51.6648 48.8342 51.3742C48.353 51.0211 47.6781 50.9086 47.6781 50.9086L40.535 50.9524C40.535 50.9524 39.4633 50.9836 39.0696 51.4492C38.7196 51.8648 39.0414 52.721 39.0414 52.721C39.0414 52.721 44.6346 65.805 50.9653 72.4017C56.7741 78.4484 63.3672 78.0516 63.3672 78.0516H66.3544C66.3544 78.0516 67.2574 77.9516 67.7167 77.4547C68.1417 76.9985 68.1261 76.1423 68.1261 76.1423C68.1261 76.1423 68.0667 72.133 69.929 71.5424C71.7632 70.9612 74.1192 75.4173 76.6159 77.1328C78.5032 78.4297 79.9374 78.1453 79.9374 78.1453L86.6149 78.0516C86.6149 78.0516 90.1083 77.836 88.4522 75.0892Z" fill="#597da3"/>
</g>
<defs>
<clipPath id="clip0">
<rect x="38.9064" y="38.9114" width="49.9914" height="49.9949" fill="white"/>
</clipPath>
</defs>
</svg>
