<svg width="35" height="35" viewBox="0 0 35 35" fill="none" xmlns="http://www.w3.org/2000/svg">
<path d="M19.1645 23.9555C19.1645 24.5001 18.9482 25.0224 18.5631 25.4075C18.1781 25.7925 17.6558 26.0089 17.1112 26.0089C16.5666 26.0089 16.0444 25.7925 15.6593 25.4075C15.2742 25.0224 15.0579 24.5001 15.0579 23.9555C15.0579 23.411 15.2742 22.8887 15.6593 22.5036C16.0444 22.1185 16.5666 21.9022 17.1112 21.9022C17.6558 21.9022 18.1781 22.1185 18.5631 22.5036C18.9482 22.8887 19.1645 23.411 19.1645 23.9555ZM22.5799 10.6636C21.8992 9.48464 20.778 8.62436 19.4629 8.27202C18.1479 7.91968 16.7468 8.10414 15.5678 8.78483L11.1223 11.3515L12.8334 14.3151L17.2789 11.7485C17.4736 11.6344 17.6889 11.5599 17.9125 11.5293C18.1361 11.4987 18.3635 11.5127 18.5816 11.5704C18.7998 11.628 19.0044 11.7283 19.1837 11.8654C19.3629 12.0024 19.5133 12.1736 19.6261 12.369C19.739 12.5645 19.812 12.7803 19.8411 13.0041C19.8702 13.2278 19.8547 13.4552 19.7956 13.673C19.7365 13.8907 19.6349 14.0947 19.4966 14.273C19.3583 14.4514 19.1862 14.6006 18.99 14.7121L14.5445 17.2788L16.2556 20.2424L20.7011 17.6758C21.8801 16.995 22.7404 15.8738 23.0927 14.5588C23.4451 13.2438 23.2606 11.8427 22.5799 10.6636Z" fill="#979CA8"/>
<path fill-rule="evenodd" clip-rule="evenodd" d="M17.1111 34.2222C26.5616 34.2222 34.2222 26.5616 34.2222 17.1111C34.2222 7.66064 26.5616 0 17.1111 0C7.66064 0 0 7.66064 0 17.1111C0 26.5616 7.66064 34.2222 17.1111 34.2222ZM17.1111 30.8C20.7416 30.8 24.2235 29.3578 26.7906 26.7906C29.3578 24.2235 30.8 20.7416 30.8 17.1111C30.8 13.4806 29.3578 9.99877 26.7906 7.4316C24.2235 4.86444 20.7416 3.42222 17.1111 3.42222C13.4806 3.42222 9.99877 4.86444 7.4316 7.4316C4.86444 9.99877 3.42222 13.4806 3.42222 17.1111C3.42222 20.7416 4.86444 24.2235 7.4316 26.7906C9.99877 29.3578 13.4806 30.8 17.1111 30.8Z" fill="#979CA8"/>
</svg>
