<svg width="38" height="38" viewBox="0 0 38 38" fill="none" xmlns="http://www.w3.org/2000/svg">
<path fill-rule="evenodd" clip-rule="evenodd" d="M24.7 19C24.7 20.5118 24.0995 21.9616 23.0306 23.0306C21.9616 24.0995 20.5118 24.7 19 24.7C17.4883 24.7 16.0385 24.0995 14.9695 23.0306C13.9006 21.9616 13.3 20.5118 13.3 19C13.3 17.4883 13.9006 16.0385 14.9695 14.9695C16.0385 13.9006 17.4883 13.3 19 13.3C20.5118 13.3 21.9616 13.9006 23.0306 14.9695C24.0995 16.0385 24.7 17.4883 24.7 19V19ZM20.9 19C20.9 19.504 20.6999 19.9872 20.3436 20.3436C19.9872 20.6999 19.504 20.9 19 20.9C18.4961 20.9 18.0129 20.6999 17.6565 20.3436C17.3002 19.9872 17.1 19.504 17.1 19C17.1 18.4961 17.3002 18.0129 17.6565 17.6565C18.0129 17.3002 18.4961 17.1 19 17.1C19.504 17.1 19.9872 17.3002 20.3436 17.6565C20.6999 18.0129 20.9 18.4961 20.9 19V19Z" fill="#979CA8"/>
<path fill-rule="evenodd" clip-rule="evenodd" d="M15.2 38L13.604 33.2139C13.3207 33.1064 13.0406 32.9904 12.7642 32.8662L8.2517 35.1215L2.8785 29.7483L5.1338 25.2358C5.00945 24.9588 4.89349 24.6781 4.7861 24.3941L0 22.8V15.2L4.7861 13.604C4.8944 13.319 5.0103 13.0397 5.1338 12.7642L2.8785 8.2517L8.2517 2.8785L12.7642 5.1338C13.0397 5.0103 13.3209 4.8925 13.6059 4.7861L15.2 0H22.8L24.396 4.7861C24.681 4.8925 24.9603 5.0103 25.2358 5.1338L29.7483 2.8785L35.1215 8.2517L32.8662 12.7642C32.9916 13.0397 33.1075 13.3209 33.2158 13.604L38 15.2V22.8L33.2158 24.396C33.1075 24.681 32.9897 24.9603 32.8662 25.2358L35.1215 29.7483L29.7483 35.1215L25.2358 32.8662C24.9594 32.9911 24.6794 33.1077 24.396 33.2158L22.8 38H15.2ZM12.6787 28.6596L9.0022 30.4988L7.5012 28.9978L9.3404 25.3213L8.5994 23.6759C8.50566 23.4683 8.41822 23.258 8.3372 23.0451L7.6969 21.3598L3.8019 20.0602V17.9379L7.6969 16.6402L8.3372 14.9549C8.4189 14.7402 8.5063 14.5312 8.5994 14.3241L9.3404 12.6787L7.5012 9.0022L9.0022 7.5012L12.6787 9.3404L14.3241 8.5994C14.5331 8.5044 14.7421 8.4189 14.9549 8.3372L16.6402 7.6969L17.9398 3.8H20.0621L21.3598 7.6969L23.047 8.3372C23.2598 8.4189 23.4688 8.5063 23.674 8.5994L25.3213 9.3404L28.9978 7.5012L30.4988 9.0022L28.6596 12.6787L29.4006 14.3241C29.4956 14.5312 29.5811 14.7421 29.6628 14.9549L30.3031 16.6402L34.2 17.9398V20.0621L30.3031 21.3598L29.6628 23.0451C29.5825 23.258 29.4957 23.4683 29.4025 23.6759L28.6615 25.3213L30.4988 28.9978L28.9978 30.4988L25.3213 28.6596L23.6759 29.4006C23.4688 29.4956 23.2579 29.5811 23.047 29.6628L21.3598 30.3031L20.0602 34.2H17.9398L16.6402 30.3031L14.9549 29.6628C14.7421 29.5817 14.5317 29.4942 14.3241 29.4006L12.6787 28.6596V28.6596Z" fill="#979CA8"/>
</svg>
